<svg width="138" height="260" viewBox="0 0 138 260" fill="none" xmlns="http://www.w3.org/2000/svg">
<path d="M69.458 78.1978L67.9215 63.4911L81.3112 54.9304L89.4329 68.5397L85.4818 77.5393L69.458 78.1978Z" fill="#EBB3A2"/>
<path d="M95.8 70.4931L89.4061 68.575L70.2243 73.0507L56.797 77.5265L58.7152 80.7235L86.2091 79.4447L95.8 70.4931Z" fill="#EBB3A2"/>
<path d="M68.3434 66.2851C72.075 64.5291 79.9771 60.2268 81.7332 57.0659C81.221 59.0415 79.9332 63.3876 78.8796 64.9681C77.826 66.5485 71.7091 69.285 68.7824 70.4557L68.3434 66.2851Z" fill="#C29689"/>
<path d="M55.1937 64.7732C52.9987 62.5782 48.1696 54.6761 55.1937 29.2136C58.6326 25.6284 67.1787 18.9847 73.8516 21.0919C80.5245 23.1992 84.9731 28.5551 86.3633 30.9696V41.2863C86.4365 42.5302 87.0657 44.9301 88.9974 44.5789C91.4119 44.1399 93.6069 45.8959 93.6069 50.5055C93.6069 55.1151 89.2169 58.6271 81.5342 56.6516L81.3147 56.8711L79.3392 59.7246C74.7296 64.7732 70.3395 65.4317 66.8275 66.0903C63.342 66.7438 57.3888 66.9683 55.1937 64.7732Z" fill="#EBB3A2"/>
<ellipse rx="4.04023" ry="1.88544" transform="matrix(-0.946837 -0.321714 -0.321714 0.946837 53.1495 43.2042)" fill="#E8919F"/>
<ellipse rx="4.04023" ry="1.88544" transform="matrix(-0.946837 -0.321714 -0.321714 0.946837 75.7748 51.8235)" fill="#E8919F"/>
<circle cx="57.3361" cy="37.4262" r="2.69348" fill="black"/>
<circle cx="73.4965" cy="42.2743" r="2.69348" fill="black"/>
<path d="M54.8789 51.951C54.5439 52.9369 56.6025 60.1846 58.7152 60.9025C60.828 61.6204 65.4135 56.1339 65.7485 55.1479C66.0835 54.162 62.3325 55.0657 60.2198 54.3479C58.107 53.63 55.2139 50.965 54.8789 51.951Z" fill="black"/>
<path fill-rule="evenodd" clip-rule="evenodd" d="M58.3744 57.8506C57.9469 57.7054 57.6533 57.4318 57.7186 57.2396C57.7839 57.0474 58.1834 57.0094 58.6109 57.1546C58.7829 57.2131 58.9333 57.2924 59.0474 57.3787C59.3158 57.2826 59.7553 57.3055 60.2151 57.4618C60.8951 57.6928 61.3621 58.1279 61.2582 58.4336C61.1544 58.7392 60.519 58.7997 59.839 58.5687C59.3892 58.4159 59.0326 58.1737 58.8728 57.9388C58.7264 57.9399 58.5528 57.9112 58.3744 57.8506Z" fill="#6B2B2B"/>
<path d="M63.8302 259.115C66.1747 254.852 67.0272 244.92 72.1424 236.736L90.6848 215.636L72.1424 179.83H35.0575L17.7938 259.115H63.8302Z" fill="#1E2D47"/>
<path d="M123.294 259.754C124.36 251.229 125.852 228.679 123.294 206.684L117.54 185.584H57.4365V206.684C62.7648 210.734 73.9329 221.007 75.9789 229.702C78.025 238.398 80.6678 253.36 81.7335 259.754H123.294Z" fill="#243B65"/>
<path fill-rule="evenodd" clip-rule="evenodd" d="M93.2425 68.5752C85.5697 76.2479 69.1586 76.4611 61.9121 75.6085C55.7313 73.4772 42.2188 71.5164 37.6152 80.7237C34.4609 87.0322 27.1244 101.505 20.8294 113.901C20.186 112.718 19.5852 111.654 19.0725 110.775L4.36646 102.463C2.02202 110.775 -0.365067 131.364 8.84222 147.221L15.2362 148.499L17.8309 148.067C22.9901 147.446 29.3197 143.999 33.1394 138.269C34.2324 136.63 35.306 135 36.3352 133.423C36.0915 134.624 35.8624 135.794 35.6516 136.919C34.661 142.209 34.3064 151.622 33.9397 161.353C33.4795 173.568 33.0004 186.285 31.2211 191.978L108.012 190.165C106.263 195.464 104.687 200.283 104.112 203.488L118.179 207.963C124.786 200.504 138 182.515 138 170.239C138 154.94 136.729 126.93 120.881 95.7133C120.258 93.7929 119.566 91.3858 118.818 88.3964C116.261 78.1661 100.702 70.9196 93.2425 68.5752Z" fill="#9CA6EA"/>
<rect width="18.5607" height="34.5904" rx="3" transform="matrix(-0.968627 0.248521 0.248521 0.968627 29.0659 65.0491)" fill="#242323"/>
<line x1="2.5" y1="-2.5" x2="32.0904" y2="-2.5" transform="matrix(0.248521 0.968627 0.968627 -0.248521 15.1733 68.6113)" stroke="black" stroke-width="5" stroke-linecap="round" stroke-linejoin="round"/>
<ellipse cx="19.7176" cy="89.2256" rx="2.67406" ry="2.29205" transform="rotate(16.7837 19.7176 89.2256)" fill="#EBB3A2"/>
<ellipse cx="18.8355" cy="92.1514" rx="2.67406" ry="2.29205" transform="rotate(16.7837 18.8355 92.1514)" fill="#EBB3A2"/>
<ellipse cx="17.2223" cy="94.857" rx="2.67406" ry="2.29205" transform="rotate(16.7837 17.2223 94.857)" fill="#EBB3A2"/>
<ellipse cx="16.3397" cy="97.7827" rx="2.67406" ry="2.29205" transform="rotate(16.7837 16.3397 97.7827)" fill="#EBB3A2"/>
<path d="M9.4431 84.9293C8.62103 86.5966 5.00574 100.083 3.44589 107.46L18.2956 111.141C18.8355 108.909 22.2116 104.104 21.4749 102.73C21.313 102.429 20.7547 102.588 20.0229 102.367L18.9338 100.552L18.2956 97.2853L20.3802 87.031L14.9408 84.5801L13.8518 80.9501C13.6079 80.8765 14.2148 80.224 12.961 81.2023C11.6141 82.2532 10.4707 82.8452 9.4431 84.9293Z" fill="#EBB3A2"/>
<path fill-rule="evenodd" clip-rule="evenodd" d="M102.86 35.2313C104.138 30.7604 105.953 24.4116 95.1605 18.0629C95.5867 15.2922 95.5441 8.59986 91.9635 3.99622C87.4878 -1.75833 77.8968 -0.479546 63.1908 2.71743C51.1842 5.32756 47.8453 6.98006 49.7635 7.83258C50.1815 7.83258 51.0587 7.53741 52.1249 7.17864C53.7766 6.62283 55.8819 5.9144 57.4362 5.9144C58.3844 5.9144 59.8305 6.17803 61.4162 6.50982C61.1632 6.52128 60.9022 6.53586 60.6332 6.5538C52.9605 7.06531 48.0584 11.0296 46.5665 12.9477C48.0584 12.0952 51.6817 10.9017 54.2392 12.9477C54.5743 13.2158 54.9093 13.3574 55.237 13.4013C51.7882 16.5047 46.1386 19.7772 42.0907 20.6205C43.0822 21.9425 45.4575 24.3663 48.382 25.6271L45.9274 27.0145C46.7799 28.0801 49.3801 30.4672 52.9607 31.4902C56.5413 32.5133 61.2728 31.9165 63.191 31.4902C66.8143 30.2114 73.9328 28.1654 73.4213 30.2114C72.9098 32.2575 68.9456 33.1953 67.0274 33.4084C69.5791 34.6171 74.6019 36.0797 80.1441 35.7165L86.2091 46.8356C86.5864 45.8923 87.0194 45.2607 87.4424 44.8128L87.4878 44.9175C90.0453 44.2781 92.2193 44.406 93.2423 47.4751C94.2653 50.5441 93.2423 53.6559 91.9635 55.1478L97.7181 51.3114C99.6363 50.0326 99.6363 48.7538 98.9969 44.2781C98.887 43.5093 98.7949 42.9036 98.7179 42.4307C99.0217 42.9055 99.5122 43.5146 100.276 44.2781C102.322 46.3241 103.259 45.9831 103.473 45.5569C102.833 43.6387 101.81 38.9072 102.833 35.3266L102.86 35.2313Z" fill="#301F1F"/>
<path d="M116.9 214.996C117.113 214.783 117.795 212.822 118.818 206.684L105.391 202.848L100.276 204.766L116.9 214.996Z" fill="#EBB3A2"/>
<path d="M17.7938 145.303C19.712 144.663 26.7454 136.351 26.7454 129.957C26.106 130.596 24.6993 132.131 24.1878 133.154C23.5484 134.433 15.2363 141.466 12.0393 141.466C9.4817 141.466 7.13726 140.614 6.28473 140.187C6.92413 142.745 8.97019 147.732 12.0393 147.221C15.8757 146.581 15.8757 145.942 17.7938 145.303Z" fill="#7881C1"/>
<path d="M89.8637 190.7C94.5526 177.485 104.058 143.256 104.57 117.169C109.046 130.383 117.613 159.113 116.079 168.321C114.544 177.528 110.324 186.65 108.406 190.06L89.8637 190.7Z" fill="#7882C1"/>
<path d="M118.818 215.636L97.0789 202.848V203.487V206.045L117.54 220.112L118.818 215.636Z" fill="#1E2D47"/>
</svg>
